C:\Users\u0150099\Documents\PredSim_dev\Subjects\test_1\MuscleAnalysis\dummy_motion.mot
version=1
nRows=14
nColumns=32
inDegrees=no
endheader
                time	         pelvis_tilt	         pelvis_list	     pelvis_rotation	           pelvis_tx	           pelvis_ty	           pelvis_tz	       hip_flexion_l	     hip_adduction_l	      hip_rotation_l	       hip_flexion_r	     hip_adduction_r	      hip_rotation_r	        knee_angle_l	        knee_angle_r	       ankle_angle_l	       ankle_angle_r	    subtalar_angle_l	    subtalar_angle_r	         mtp_angle_l	         mtp_angle_r	    lumbar_extension	      lumbar_bending	     lumbar_rotation	          arm_flex_l	           arm_add_l	           arm_rot_l	          arm_flex_r	           arm_add_r	           arm_rot_r	        elbow_flex_l	        elbow_flex_r	
          0.01000000	          0.00000000	          0.00000000	          0.00000000	          0.00000000	          0.00000000	          0.00000000	         -0.01767781	         -0.28381193	         -0.32622682	          0.82757475	          0.49556849	         -0.01710908	         -0.95450807	         -0.39589336	         -0.21700040	          0.35577007	          0.05754159	         -0.15123927	         -0.30579140	          0.19271377	         -0.33411177	          0.39985180	          0.46385352	          0.07434647	          0.47962026	          0.27531227	         -0.21239516	         -0.17658364	          0.24191460	          0.21198621	         -0.36557090	
          0.02000000	          0.00000000	          0.00000000	          0.00000000	          0.00000000	          0.00000000	          0.00000000	         -0.43952187	         -0.01549533	          0.14240583	         -0.18555743	         -0.23522870	          0.29989151	         -0.93458311	         -0.21707144	         -0.36992955	         -0.46379541	          0.35103016	          0.47247052	         -0.12743953	          0.23257564	         -0.00669108	         -0.07437960	          0.16096448	          0.37527586	          0.31966944	         -0.04442776	         -0.07667233	          0.49470370	         -0.43358976	         -0.14654304	         -0.47544149	
          0.03000000	          0.00000000	          0.00000000	          0.00000000	          0.00000000	          0.00000000	          0.00000000	          0.67671503	         -0.45367490	         -0.18273979	         -0.68557506	          0.30740822	         -0.35468446	         -1.21367560	         -0.04007687	         -0.33254142	          0.14077331	         -0.41630277	         -0.07957119	         -0.17699828	         -0.10311596	         -0.08915631	         -0.22781447	          0.28924444	          0.47525201	          0.01534490	         -0.37751436	          0.02482591	         -0.38809387	         -0.47440533	         -0.37669167	          0.47378351	
          0.04000000	          0.00000000	          0.00000000	          0.00000000	          0.00000000	          0.00000000	          0.00000000	          0.67763982	         -0.47107835	          0.35232628	          0.43834597	          0.38519700	          0.30900219	         -0.68191859	         -0.13812687	         -0.07917337	          0.38247399	          0.45406111	          0.20140211	          0.74519856	          0.04631236	         -0.36052857	         -0.33718236	          0.48310598	          0.39845997	          0.05823561	         -0.10417440	         -0.10415941	          0.11726516	         -0.16731790	         -0.32184776	         -0.08648607	
          0.05000000	          0.00000000	          0.00000000	          0.00000000	          0.00000000	          0.00000000	          0.00000000	         -0.17414640	         -0.21306656	         -0.17945452	          0.79857520	         -0.42680334	          0.16303316	         -1.44565083	         -0.16482974	         -0.35618563	          0.05401394	          0.25151042	         -0.06817111	          0.07262814	          0.64542767	          0.32818492	          0.39327418	          0.20533958	          0.26254201	         -0.29831005	          0.16004361	         -0.25204626	         -0.00793057	         -0.11438951	          0.35858603	         -0.39216528	
          0.06000000	          0.00000000	          0.00000000	          0.00000000	          0.00000000	          0.00000000	          0.00000000	          0.80398386	         -0.05978678	         -0.26786861	         -0.59994244	          0.19808972	         -0.03180659	         -1.36094013	         -1.41317322	          0.01359364	          0.35306658	          0.27167421	          0.31384527	          0.24326212	          0.17718539	          0.41741897	         -0.30330282	         -0.20959333	          0.14068999	         -0.24099855	         -0.11778535	          0.22552656	         -0.00209068	          0.37239052	         -0.21691161	         -0.26090927	
          0.07000000	          0.00000000	          0.00000000	          0.00000000	          0.00000000	          0.00000000	          0.00000000	          0.05019136	         -0.50362282	          0.08864079	          0.47303694	          0.49980151	          0.02484593	         -0.40873407	         -0.61240851	         -0.18966378	         -0.48491040	          0.00682164	         -0.41382204	          0.58157959	          0.79080791	          0.30598985	          0.29912307	         -0.37903674	          0.10699110	          0.30638677	         -0.15297938	          0.33301540	          0.12287377	          0.38100199	          0.28768028	         -0.51939154	
          0.08000000	          0.00000000	          0.00000000	          0.00000000	          0.00000000	          0.00000000	          0.00000000	         -0.10869787	          0.25085872	          0.02236702	         -0.03479166	          0.31743084	          0.16759091	         -1.32639381	         -0.22404784	         -0.31879727	         -0.03403394	         -0.18410588	         -0.35134548	          0.81117815	          0.59722936	         -0.51122458	          0.42527068	         -0.30025310	          0.21536507	         -0.50370417	          0.21649789	          0.25957910	         -0.39338103	         -0.25731193	          0.23542925	          0.30673738	
          0.09000000	          0.00000000	          0.00000000	          0.00000000	          0.00000000	          0.00000000	          0.00000000	          0.65130136	          0.37985139	         -0.35376650	         -0.46423363	          0.44948626	          0.41542867	         -0.26353560	         -0.78073515	          0.21114158	          0.51917163	         -0.09234066	         -0.48634526	          0.47359912	         -0.00538080	          0.16610647	         -0.45432590	          0.21990829	         -0.25227862	         -0.39129664	          0.39194438	         -0.34750260	         -0.08988883	         -0.21481426	          0.11836420	         -0.07311045	
          0.10000000	          0.00000000	          0.00000000	          0.00000000	          0.00000000	          0.00000000	          0.00000000	         -0.05377614	          0.30087285	          0.17167977	          0.39893660	          0.04503028	          0.50270617	         -1.11829936	         -1.09095365	         -0.48250825	         -0.23196357	         -0.30113194	          0.19808268	          0.72431204	          0.44978047	         -0.13251263	          0.32183813	         -0.34652967	          0.07847222	          0.45053698	          0.16113218	          0.31108638	         -0.50087659	          0.48224358	         -0.46482636	          0.42866087	
          0.11000000	          0.00000000	          0.00000000	          0.00000000	          0.00000000	          0.00000000	          0.00000000	         -0.84939308	          0.38283073	         -0.41433378	         -0.60243708	          0.03154668	          0.30260025	         -1.31569941	         -0.57766341	          0.02084684	          0.37202063	          0.23271907	          0.32944785	          0.80702585	          0.71667369	          0.03512533	         -0.05908581	          0.47538272	         -0.30521804	          0.12417344	         -0.01290694	         -0.46405759	         -0.10076678	         -0.21325492	          0.32257634	         -0.45254030	
          0.12000000	          0.00000000	          0.00000000	          0.00000000	          0.00000000	          0.00000000	          0.00000000	         -0.62545188	         -0.22537870	         -0.08740695	         -0.81770642	         -0.36824094	          0.30219763	         -1.38809643	         -0.94362837	          0.19269579	         -0.51298222	          0.33333019	          0.35109217	          0.28480046	          0.60197100	          0.39400726	         -0.16355219	         -0.19665481	         -0.36906150	         -0.11037860	          0.38400940	          0.41886269	         -0.22710936	         -0.19353828	         -0.41107124	          0.18739207	
          0.13000000	          0.00000000	          0.00000000	          0.00000000	          0.00000000	          0.00000000	          0.00000000	          0.49651766	         -0.31363107	          0.23879444	         -0.41305701	         -0.26344710	          0.19147588	         -1.12823977	         -1.27625928	          0.48698035	         -0.18247477	         -0.23568456	          0.43414090	          0.39211881	         -0.22325825	         -0.43562416	         -0.11756855	         -0.32225347	          0.05334368	         -0.03396166	         -0.28413240	         -0.11607349	         -0.36841952	         -0.49139994	         -0.26615855	         -0.38814103	
          0.14000000	          0.00000000	          0.00000000	          0.00000000	          0.00000000	          0.00000000	          0.00000000	         -0.76788173	         -0.28821755	          0.45048340	         -0.73395230	         -0.42504453	          0.34132399	         -1.51922203	         -1.19784048	          0.32460546	         -0.35278628	         -0.44120681	         -0.42082041	          0.03238236	          0.42273164	          0.29195573	         -0.39271691	         -0.45955707	         -0.35506988	          0.00532124	         -0.14849431	         -0.18747419	         -0.30867812	          0.49477284	          0.46468093	         -0.04419010	
